<svg id="Layer_1" data-name="Layer 1" xmlns="http://www.w3.org/2000/svg" viewBox="0 0 1037.93 356.79"><path d="M75.45,272.51q-36.91,0-67.19-16.35a13.8,13.8,0,0,1-6.28-12A14.45,14.45,0,0,1,6,234a13.5,13.5,0,0,1,10.34-4.37A16.54,16.54,0,0,1,23,231.09a150.38,150.38,0,0,0,23.63,8A111.54,111.54,0,0,0,73.24,242q41,0,41-25.8,0-8.35-9.6-12.72-9.23-4.35-30.64-9.81a289.75,289.75,0,0,1-36.19-10.53,66.33,66.33,0,0,1-24.37-16.35q-10-11.26-10-29.43,0-25.44,18.45-41.43,18.84-16,53.54-16A156.17,156.17,0,0,1,129,89a13,13,0,0,1,7.76,5.45,14.53,14.53,0,0,1-11.83,22.91,21.68,21.68,0,0,1-4.8-.72A143.36,143.36,0,0,0,78,110.1q-19.95,0-31.39,7.26-11.07,6.9-11.07,18.17,0,10.91,10.33,16T78,161.33a286.57,286.57,0,0,1,35.44,10.89,55.78,55.78,0,0,1,23.27,16.36q10,11.25,10,30.15,0,23.27-18.83,38.52-18.47,15.25-52.44,15.26" transform="translate(-1.97 0)"/><path d="M249.17,272.52q-28.42,0-49.85-12a83.66,83.66,0,0,1-33.23-33.79q-11.44-22.17-11.45-50.51t11.45-50.14a83.07,83.07,0,0,1,33.23-34.15q21.42-12,49.85-12,28.07,0,49.48,12a83,83,0,0,1,33.23,34.15q11.82,21.8,11.82,50.14t-11.82,50.51a83.47,83.47,0,0,1-33.23,33.79q-21.42,12-49.48,12m0-30.17a63.11,63.11,0,0,0,28.8-6.9q14-6.9,22.89-21.8,9.24-14.9,9.23-37.79,0-22.53-9.23-37.42Q292,123.53,278,117a63.11,63.11,0,0,0-28.8-6.9,66.1,66.1,0,0,0-29.54,6.9q-13.66,6.54-22.52,21.44t-8.86,37.42q0,22.89,8.86,37.79t22.52,21.8a66.1,66.1,0,0,0,29.54,6.9" transform="translate(-1.97 0)"/><path d="M381.51,270.69A16.22,16.22,0,0,1,369.69,266a15.71,15.71,0,0,1-4.8-11.63V18.53a15.71,15.71,0,0,1,4.8-11.63,15.61,15.61,0,0,1,11.82-5.09,16.66,16.66,0,0,1,12.18,4.73,16.16,16.16,0,0,1,4.8,12v235.8A15.11,15.11,0,0,1,393.32,266a16.19,16.19,0,0,1-11.81,4.72" transform="translate(-1.97 0)"/><path d="M446.87,45.78a18.22,18.22,0,0,1-13.29-5.45A17.65,17.65,0,0,1,428,27.25V25.8a17.63,17.63,0,0,1,5.54-13.08,18.27,18.27,0,0,1,13.29-5.46H449a18.29,18.29,0,0,1,13.3,5.46,17.71,17.71,0,0,1,5.53,13.08v1.45a17.71,17.71,0,0,1-5.53,13.08A18.25,18.25,0,0,1,449,45.78Zm.74,224.91A16.22,16.22,0,0,1,435.79,266a15.71,15.71,0,0,1-4.8-11.63V98.47a16.89,16.89,0,0,1,16.62-16.72,16.63,16.63,0,0,1,12.18,4.73,16.07,16.07,0,0,1,4.8,12V254.34A15.11,15.11,0,0,1,459.42,266a16.15,16.15,0,0,1-11.81,4.72" transform="translate(-1.97 0)"/><path d="M575,272.51a89.91,89.91,0,0,1-43.58-11.26q-20.29-11.62-33.23-33.44-12.54-22.16-12.55-51.59T498.2,125q12.93-22.15,33.23-33.43A87.65,87.65,0,0,1,575,79.94q36.18,0,63.14,27.61v-89a16.19,16.19,0,0,1,4.79-12,17.49,17.49,0,0,1,12.19-4.72,15.58,15.58,0,0,1,11.81,5.09,15.71,15.71,0,0,1,4.8,11.63V254.34a15.71,15.71,0,0,1-4.8,11.63,16.15,16.15,0,0,1-11.81,4.72A17.46,17.46,0,0,1,642.94,266a15.71,15.71,0,0,1-4.79-11.63v-9.45q-27,27.63-63.14,27.62m4.8-30.88a71,71,0,0,0,31.75-7.27,93.19,93.19,0,0,0,26.59-20v-76.3a87.82,87.82,0,0,0-26.59-19.62,68.09,68.09,0,0,0-31.75-7.63q-27.33,0-43.94,17.08t-16.62,48.32q0,31.24,16.62,48.33t43.94,17.08" transform="translate(-1.97 0)"/><path d="M720.06,45.78a18.22,18.22,0,0,1-13.29-5.45,17.72,17.72,0,0,1-5.54-13.08V25.8a17.72,17.72,0,0,1,5.54-13.08,18.27,18.27,0,0,1,13.29-5.46h2.22a18.27,18.27,0,0,1,13.29,5.46,17.63,17.63,0,0,1,5.54,13.08v1.45a17.63,17.63,0,0,1-5.54,13.08,18.22,18.22,0,0,1-13.29,5.45Zm.74,224.91A16.16,16.16,0,0,1,709,266a15.68,15.68,0,0,1-4.81-11.63V98.47a16.9,16.9,0,0,1,16.62-16.72A16.59,16.59,0,0,1,733,86.48a16.07,16.07,0,0,1,4.8,12V254.34A15.13,15.13,0,0,1,732.63,266a16.18,16.18,0,0,1-11.82,4.72" transform="translate(-1.97 0)"/><path d="M800.94,270.69A16.18,16.18,0,0,1,789.12,266a15.71,15.71,0,0,1-4.8-11.63V111.91H762.53a14.92,14.92,0,0,1-10.33-4,14.4,14.4,0,0,1-4.07-10.17,13.63,13.63,0,0,1,4.07-10.18,15,15,0,0,1,10.33-4h21.79V62.49q0-21.79,7.76-35.6,8.11-14.17,20.67-20.35a59,59,0,0,1,27-6.54,71.77,71.77,0,0,1,32.12,7.26,14,14,0,0,1,5.9,5.46,11.43,11.43,0,0,1,2.6,7.26,14.1,14.1,0,0,1-4.06,9.82,13.32,13.32,0,0,1-9.61,4,35.8,35.8,0,0,1-8.49-1.09c-5.91-.73-9.25-1.1-10-1.09q-15.13,0-22.89,6.9-7.38,6.9-7.39,25.08v20H876a14.12,14.12,0,0,1,10.34,4,13.7,13.7,0,0,1,4,10.18,14.49,14.49,0,0,1-4,10.17A14.12,14.12,0,0,1,876,112H817.93V254.34A15.13,15.13,0,0,1,812.76,266,16.15,16.15,0,0,1,801,270.69" transform="translate(-1.97 0)"/><path d="M922.48,356.78a15.63,15.63,0,0,1-15.88-15.37q0-.32,0-.63a16.25,16.25,0,0,1,1.11-5.81l24-60.69L862.29,107.87a18.41,18.41,0,0,1-1.48-6.9,15.71,15.71,0,0,1,4.8-11.63c3.21-3.39,6.24-5.78,10.92-5.78,3.44,0,7.08.49,9.8,2.43,3,1.94,4.48,4.84,5.71,7.74l57.76,139.5,58-138.08q4.8-10.89,15.51-10.9A16.88,16.88,0,0,1,1039.9,101a17.3,17.3,0,0,1-1.1,6.17L938,345.52q-5.18,11.26-15.51,11.26" transform="translate(-1.97 0)"/></svg>